<?xml version="1.0" encoding="UTF-8"?>
<!DOCTYPE svg PUBLIC "-//W3C//DTD SVG 1.1//EN" "http://www.w3.org/Graphics/SVG/1.1/DTD/svg11.dtd">
<!-- Creator: CorelDRAW (Evaluation Version) -->
<svg xmlns="http://www.w3.org/2000/svg" xml:space="preserve" width="142.24mm" height="94.8182mm" version="1.1" style="shape-rendering:geometricPrecision; text-rendering:geometricPrecision; image-rendering:optimizeQuality; fill-rule:evenodd; clip-rule:evenodd"
viewBox="0 0 800.54 533.64"
 xmlns:xlink="http://www.w3.org/1999/xlink"
 xmlns:xodm="http://www.corel.com/coreldraw/odm/2003">
 <defs>
  <style type="text/css">
   <![CDATA[
    .fil0 {fill:#373435;fill-rule:nonzero}
   ]]>
  </style>
 </defs>
 <g id="Layer_x0020_1">
  <metadata id="CorelCorpID_0Corel-Layer"/>
  <image transform="matrix(-0.297767 -0 -0 0.297767 800.537 0)" x="0" y="0" width="2688.47" height="1792.15" xlink:href="img1_Images\img1_ImgID1.png"/>
  <g id="_2113214170288">
   <g>
    <path class="fil0" d="M135.27 232.47l0 -18.66 7.76 0 0 16.09c0,0.87 0.44,1.26 1.26,1.26 0.39,0 0.78,-0.05 1.12,-0.14l0.24 6.35c-1.31,0.58 -2.62,0.92 -4.56,0.92 -3.78,0 -5.82,-1.79 -5.82,-5.81zm-0.78 -25.98c0,-3.01 2.18,-4.65 4.8,-4.65 2.71,0 4.75,1.65 4.75,4.65 0,2.95 -2.04,4.61 -4.75,4.61 -2.62,0 -4.8,-1.65 -4.8,-4.61z"/>
    <path class="fil0" d="M157.61 214.19l4.46 0 0 6.2 -4.46 0 0 17.64 -7.75 0 0 -17.64 -3.15 0 0 -6.35 3.15 0 0 -1.84c0,-6.83 4.12,-10.08 8.92,-10.08 2.18,0 3.97,0.39 5.23,1.26l-2.28 6.59c-0.53,-0.34 -0.97,-0.44 -1.65,-0.44 -1.31,0 -2.47,0.78 -2.47,2.72l0 1.94z"/>
    <path class="fil0" d="M185.24 235.8c-1.79,1.94 -4.51,2.95 -7.61,2.95 -5.77,0 -9.31,-2.62 -9.31,-8.77l0 -9.6 -4.31 0 0 -6.11c4.02,-0.24 5.28,-1.36 5.62,-6.25l0 -0.34 6.4 0 0 6.35 7.56 0 0 6.35 -7.56 0 0 8.05c0,2.23 1.21,3.1 3.1,3.1 1.21,0 1.99,-0.39 2.81,-1.16l3.3 5.43z"/>
    <path class="fil0" d="M198.63 232.51l0 -29.81 7.76 0 0 27.53c0,0.87 0.49,1.21 1.26,1.21 0.48,0 0.82,0 1.12,-0.1l0.24 6.4c-1.31,0.58 -2.52,0.87 -4.61,0.87 -3.68,0 -5.77,-1.79 -5.77,-6.11z"/>
    <path class="fil0" d="M227.46 226.01c0,-3.73 -1.89,-6.06 -5.04,-6.06 -3.2,0 -4.99,2.28 -4.99,6.06 0,3.78 1.79,6.06 5.04,6.06 3.15,0 4.99,-2.23 4.99,-6.06zm-17.84 0.15c0,-7.61 5.09,-12.89 12.94,-12.89 7.9,0 12.7,4.7 12.7,12.6 0,7.61 -5.04,12.89 -12.94,12.89 -7.85,0 -12.7,-4.7 -12.7,-12.6z"/>
    <path class="fil0" d="M237.03 228.97l0 -14.93 7.75 0 0 14.15c0,2.52 1.02,3.69 3.15,3.69 3.25,0 4.65,-2.96 4.65,-8.63 0,-3.64 -0.87,-7.27 -1.6,-9.21l7.75 0c0.92,2.33 1.6,5.82 1.6,9.26 0,8.97 -3.05,15.46 -13.57,15.46 -6.54,0 -9.74,-3.2 -9.74,-9.79z"/>
    <path class="fil0" d="M269.81 224.32c4.36,-0.24 7.32,-0.77 7.32,-3.01 0,-1.21 -1.02,-1.89 -2.62,-1.89 -2.52,0 -4.36,1.65 -4.7,4.89zm15.22 11.05c-2.28,1.89 -5.48,3.39 -11,3.39 -7.22,0 -12.12,-3.88 -12.12,-11.97 0,-7.95 4.9,-13.53 13.14,-13.53 6.25,0 9.4,3.1 9.5,7.42 0.1,5.57 -4.94,8.29 -14.25,8.58 0.82,2.33 2.62,2.91 5.19,2.91 2.52,0 4.46,-0.68 6.35,-2.09l3.2 5.28z"/>
    <path class="fil0" d="M285.81 236.04l3.05 -5.77c2.33,1.65 5.28,2.42 8.48,2.42 2.86,0 3.73,-0.48 3.73,-1.5 0,-1.07 -0.78,-1.4 -5.53,-2.23 -6.2,-1.02 -8.82,-3.39 -8.82,-7.7 0,-5.04 3.93,-8 10.57,-8 6.45,0 9.89,2.08 10.62,7.22l-6.88 0.97c-0.39,-1.74 -1.55,-2.42 -3.88,-2.42 -2.28,0 -3.2,0.63 -3.2,1.79 0,1.26 0.82,1.7 6.59,2.57 5.38,0.83 8,3.11 8,7.37 0,5.28 -3.83,8 -11.44,8 -5.04,0 -8.77,-0.87 -11.29,-2.71z"/>
    <path class="fil0" d="M124.42 225.72c0,-0.9 0.03,-1.8 -0.02,-2.7 -0.01,-0.26 -0.16,-0.59 -0.35,-0.74 -1.87,-1.44 -3.97,-1.96 -6.29,-1.43 -2.12,0.48 -3.64,2.12 -3.82,4.12 -0.22,2.49 0.73,4.37 2.77,5.19 2.65,1.07 5.14,0.65 7.4,-1.09 0.17,-0.13 0.28,-0.43 0.29,-0.65 0.03,-0.9 0.01,-1.8 0.01,-2.7zm-13.73 14.24c1.36,0.54 2.66,1.14 4.01,1.56 2.03,0.62 4.11,0.86 6.22,0.4 2.08,-0.46 3.26,-1.75 3.47,-3.88 0.08,-0.85 0.01,-1.71 0.01,-2.61 -0.55,0.35 -1.04,0.73 -1.58,1 -6.35,3.24 -15.15,0.53 -16.86,-8.09 -0.88,-4.43 0.14,-8.45 3.45,-11.67 2.51,-2.43 5.62,-3.33 9.05,-2.98 2.63,0.26 2.87,0.43 5.94,2.4 0,-0.68 0,-1.32 0,-1.99 2.72,0 5.37,0 8.09,0 0,0.22 0,0.43 0,0.63 0,6.89 0,13.78 -0,20.67 -0,2.68 -0.42,5.26 -1.84,7.61 -1.53,2.53 -3.77,4.17 -6.57,4.96 -4.64,1.32 -9.17,0.75 -13.58,-1.06 -0.48,-0.19 -1.14,-0.34 -1.34,-0.71 -0.18,-0.33 0.15,-0.95 0.27,-1.44 0.42,-1.61 0.84,-3.22 1.26,-4.81z"/>
   </g>
   <g>
    <path class="fil0" d="M136.09 252.92c0.89,0 1.36,-0.58 1.36,-1.28 0,-0.71 -0.47,-1.29 -1.35,-1.29l-1.44 0 0 2.57 1.43 0zm-2.68 -3.66l2.62 0c1.83,0 2.74,1.07 2.74,2.37 0,1.31 -0.91,2.35 -2.74,2.35l-1.36 0 0 1.43 -1.26 0 0 -6.15z"/>
    <path class="fil0" d="M144.72 252.93c0.85,0 1.4,-0.58 1.4,-1.29 0,-0.73 -0.55,-1.3 -1.39,-1.3l-1.41 0 0 2.59 1.4 0zm-2.65 -3.67l2.71 0c1.74,0 2.65,1.07 2.65,2.38 0,0.83 -0.44,1.55 -1.22,1.95l1.32 1.82 -1.32 0 -1.03 -1.46c-0.12,0.03 -0.35,0.05 -0.41,0.05l-1.44 0 0 1.42 -1.26 0 0 -6.15z"/>
    <polygon class="fil0" points="150.73,249.26 155.64,249.26 155.64,250.35 151.99,250.35 151.99,251.67 155.44,251.67 155.44,252.74 151.99,252.74 151.99,254.34 155.78,254.34 155.78,255.42 150.73,255.42 "/>
    <path class="fil0" d="M158.56 254.72l0.55 -0.99c0.45,0.38 1.08,0.67 1.93,0.67 0.75,0 1.25,-0.35 1.25,-0.78 0,-0.46 -0.66,-0.63 -1.41,-0.84 -0.96,-0.27 -2.06,-0.64 -2.06,-1.83 0,-1.19 1.13,-1.77 2.27,-1.77 0.92,0 1.64,0.26 2.27,0.68l-0.49 0.98c-0.59,-0.38 -1.15,-0.53 -1.78,-0.53 -0.48,0 -0.96,0.23 -0.96,0.6 0,0.41 0.58,0.56 1.26,0.76 0.99,0.29 2.2,0.67 2.2,1.94 0,1.3 -1.24,1.91 -2.52,1.91 -1.35,0 -2.13,-0.47 -2.52,-0.8z"/>
    <polygon class="fil0" points="166.88,249.26 171.79,249.26 171.79,250.35 168.13,250.35 168.13,251.67 171.58,251.67 171.58,252.74 168.13,252.74 168.13,254.34 171.92,254.34 171.92,255.42 166.88,255.42 "/>
    <path class="fil0" d="M175.02 249.26l1.31 0 1.85 2.61c0.45,0.63 1,1.59 1,1.59l0 -4.2 1.25 0 0 6.15 -1.32 0 -1.75 -2.44c-0.57,-0.8 -1.1,-1.72 -1.1,-1.72l0 4.16 -1.25 0 0 -6.15z"/>
    <polygon class="fil0" points="185.63,250.35 183.5,250.35 183.5,249.26 189.01,249.26 189.01,250.35 186.88,250.35 186.88,255.42 185.63,255.42 "/>
    <polygon class="fil0" points="192.07,249.26 196.98,249.26 196.98,250.35 193.33,250.35 193.33,251.67 196.78,251.67 196.78,252.74 193.33,252.74 193.33,254.34 197.12,254.34 197.12,255.42 192.07,255.42 "/>
    <path class="fil0" d="M199.9 254.72l0.55 -0.99c0.45,0.38 1.08,0.67 1.93,0.67 0.75,0 1.26,-0.35 1.26,-0.78 0,-0.46 -0.67,-0.63 -1.41,-0.84 -0.96,-0.27 -2.06,-0.64 -2.06,-1.83 0,-1.19 1.14,-1.77 2.27,-1.77 0.92,0 1.64,0.26 2.27,0.68l-0.49 0.98c-0.59,-0.38 -1.15,-0.53 -1.78,-0.53 -0.48,0 -0.96,0.23 -0.96,0.6 0,0.41 0.58,0.56 1.27,0.76 0.99,0.29 2.21,0.67 2.21,1.94 0,1.3 -1.24,1.91 -2.52,1.91 -1.35,0 -2.13,-0.47 -2.52,-0.8z"/>
    <path class="fil0" d="M215.74 254.12l-1.43 -1.35c-0.31,0.21 -0.49,0.49 -0.49,0.82 0,0.49 0.42,0.83 1.02,0.83 0.43,0 0.69,-0.13 0.9,-0.29zm-3.23 -0.47c0,-0.61 0.33,-1.25 1.04,-1.7 -0.26,-0.33 -0.39,-0.75 -0.39,-1.16 0,-0.73 0.6,-1.61 1.87,-1.61 0.6,0 1.32,0.16 1.79,1.22l-1.03 0.51c-0.14,-0.38 -0.41,-0.66 -0.74,-0.66 -0.34,0 -0.61,0.2 -0.61,0.62 0,0.43 0.29,0.78 0.7,1.19l1.31 1.28c0.08,-0.13 0.1,-0.32 0.1,-0.54l1.1 0c0,0.58 -0.13,1.09 -0.35,1.36l0.67 0.64 -0.73 0.75 -0.65 -0.63c-0.51,0.39 -1.19,0.6 -1.83,0.6 -1.15,0 -2.23,-0.6 -2.23,-1.87z"/>
    <polygon class="fil0" points="225.55,249.26 230.46,249.26 230.46,250.35 226.8,250.35 226.8,251.67 230.25,251.67 230.25,252.74 226.8,252.74 226.8,254.34 230.59,254.34 230.59,255.42 225.55,255.42 "/>
    <polygon class="fil0" points="233.37,253.25 237.78,253.25 237.78,252.25 233.37,252.25 "/>
    <path class="fil0" d="M240.74 252.34c0,-1.78 1.34,-3.16 3.25,-3.16 0.79,0 1.51,0.25 2.04,0.68l-0.72 0.85c-0.39,-0.3 -0.8,-0.4 -1.23,-0.4 -1.22,0 -2.03,0.92 -2.03,2.03 0,1.12 0.82,2.05 1.95,2.05 0.55,0 1.06,-0.19 1.44,-0.53l0.75 0.86c-0.57,0.5 -1.33,0.8 -2.21,0.8 -1.91,0 -3.25,-1.39 -3.25,-3.18z"/>
    <path class="fil0" d="M253.32 253.52l-1.21 -2.91 -1.23 2.91 2.44 0zm-1.82 -4.27l1.22 0 2.71 6.16 -1.27 0 -0.42 -0.91 -3.31 0 -0.39 0.91 -1.26 0 2.72 -6.16z"/>
    <path class="fil0" d="M261.04 252.93c0.85,0 1.4,-0.58 1.4,-1.29 0,-0.73 -0.55,-1.3 -1.39,-1.3l-1.41 0 0 2.59 1.4 0zm-2.65 -3.67l2.7 0c1.74,0 2.65,1.07 2.65,2.38 0,0.83 -0.44,1.55 -1.22,1.95l1.32 1.82 -1.32 0 -1.03 -1.46c-0.12,0.03 -0.35,0.05 -0.41,0.05l-1.44 0 0 1.42 -1.25 0 0 -6.15z"/>
    <path class="fil0" d="M269.46 254.34c1.21,0 2.02,-0.85 2.02,-2 0,-1.15 -0.81,-2 -2.02,-2l-1.15 0 0 3.99 1.15 0zm-2.4 -5.08l2.44 0c2.02,0 3.28,1.4 3.28,3.08 0,1.68 -1.27,3.07 -3.28,3.07l-2.44 0 0 -6.15z"/>
    <path class="fil0" d="M275.76 254.72l0.55 -0.99c0.45,0.38 1.08,0.67 1.93,0.67 0.75,0 1.26,-0.35 1.26,-0.78 0,-0.46 -0.66,-0.63 -1.41,-0.84 -0.96,-0.27 -2.06,-0.64 -2.06,-1.83 0,-1.19 1.13,-1.77 2.27,-1.77 0.92,0 1.64,0.26 2.27,0.68l-0.49 0.98c-0.59,-0.38 -1.15,-0.53 -1.78,-0.53 -0.48,0 -0.96,0.23 -0.96,0.6 0,0.41 0.58,0.56 1.27,0.76 0.99,0.29 2.2,0.67 2.2,1.94 0,1.3 -1.24,1.91 -2.52,1.91 -1.35,0 -2.13,-0.47 -2.52,-0.8z"/>
   </g>
   <path class="fil0" d="M204.66 148.98c0.65,0.65 1.43,1 2.24,1.02l0.14 0c0.05,0 0.1,0 0.15,0 0.82,-0.02 1.59,-0.37 2.24,-1.02 1.2,-1.2 2.41,-2.38 3.61,-3.58 3.1,-3.06 6.3,-6.22 9.37,-9.42l7.41 4.28c2.4,1.38 4.36,2.51 5.45,3.14l-3.62 2.09c-8.1,4.68 -16.05,9.27 -24.02,13.83 -0.26,0.15 -0.76,0.17 -0.99,0.05 -2.79,-1.57 -16.35,-9.4 -23.63,-13.61l-4.09 -2.36 2.35 -1.36c1.95,-1.13 3.84,-2.22 5.74,-3.32l4.69 -2.7c3.06,3.19 6.26,6.35 9.35,9.4 1.2,1.19 2.41,2.38 3.61,3.57zm-0.14 -24.28c0.49,0.47 1,0.8 1.52,0.99l0.37 0.09 0 -0.01c1.07,0.28 2.13,-0.08 3.16,-1.07 0.41,-0.4 0.81,-0.8 1.22,-1.22 0.58,-0.59 1.18,-1.2 1.81,-1.77 2.08,-1.89 5.19,-1.85 7.22,0.09 1.04,0.99 1.65,2.38 1.68,3.8 0.03,1.24 -0.41,2.4 -1.23,3.24 -3.11,3.21 -6.37,6.38 -9.53,9.45 -1.25,1.22 -2.5,2.43 -3.75,3.66l-0.56 -0.55 0 -0.14 -0.08 -0.08c-0.96,-0.93 -1.92,-1.87 -2.88,-2.8 -3.18,-3.09 -6.48,-6.29 -9.61,-9.52 -0.82,-0.85 -1.26,-2 -1.24,-3.24 0.03,-1.42 0.64,-2.81 1.68,-3.8 2.03,-1.94 5.13,-1.97 7.22,-0.08 0.62,0.56 1.22,1.18 1.81,1.76 0.4,0.41 0.8,0.82 1.22,1.22zm-28.73 28.59l0 -3.63c0.01,-0.19 0.03,-0.39 0.05,-0.62l0 -0.04c0.02,0.01 0.04,0.02 0.07,0.03 0.24,0.1 0.46,0.18 0.64,0.29 4.66,2.69 9.32,5.38 13.97,8.08 -4.82,2.79 -9.64,5.58 -14.47,8.37 -0.04,0.03 -0.11,0.04 -0.22,0.08 0,0 0,0 0,0 -0.01,-0.06 -0.01,-0.11 -0.01,-0.17 -0.02,-0.31 -0.04,-0.57 -0.04,-0.84 -0,-3.85 0,-7.69 0.01,-11.54zm28.18 32.58c-4.53,-2.64 -13.85,-8.01 -20.08,-11.6 -2.18,-1.26 -3.95,-2.28 -4.97,-2.86 6.06,-3.5 12.01,-6.93 17.94,-10.34l2.07 1.2c1.39,0.8 2.78,1.61 4.17,2.42 0.41,0.24 0.83,0.85 0.83,1.21 0.03,6.85 0.04,13.87 0.04,19.97zm6.29 -19.68c0,-0.51 0.3,-1.17 0.6,-1.35 1.57,-0.92 3.15,-1.83 4.72,-2.74l1.7 -0.98c4.45,2.56 9.66,5.54 13.49,7.72 1.97,1.13 3.57,2.04 4.51,2.58l-1.88 1.09c-2.12,1.23 -4.16,2.41 -6.2,3.58l-4.61 2.66c-4.12,2.37 -8.24,4.75 -12.35,7.14 -0,-6.56 -0,-13.13 0.03,-19.69zm28.16 -16.2c0,3.85 -0,7.69 -0.01,11.54l-0 3.63c-0.01,0.19 -0.03,0.39 -0.05,0.61l-0 0.05c-0.02,-0.01 -0.04,-0.02 -0.07,-0.03 -0.25,-0.1 -0.46,-0.19 -0.65,-0.29 -4.66,-2.69 -9.32,-5.39 -13.98,-8.09 4.82,-2.79 9.65,-5.57 14.48,-8.36 0.04,-0.02 0.11,-0.04 0.22,-0.07 0,0.06 0.01,0.11 0.01,0.17 0.02,0.3 0.04,0.57 0.04,0.84zm6.35 7.37l-0 -2.39 0 -0.48c0.01,-3.39 0.01,-6.77 0.02,-10.16 0.01,-1.92 -0.7,-3.16 -2.37,-4.11 -5.3,-3.03 -10.58,-6.09 -15.86,-9.14 1.8,-3.19 2.04,-6.89 0.64,-10.19 -1.41,-3.34 -4.34,-5.75 -8.03,-6.63 -0.11,-0.02 -1.05,-0.19 -1.63,-0.24 -3.86,-0.29 -7.51,1 -10.02,3.53 -0.15,0.16 -0.31,0.32 -0.47,0.51 -0.15,-0.18 -0.31,-0.35 -0.47,-0.51 -2.51,-2.52 -6.16,-3.8 -10.02,-3.53 -0.58,0.04 -1.53,0.21 -1.63,0.24 -3.7,0.88 -6.63,3.3 -8.04,6.66 -1.4,3.32 -1.14,7.03 0.68,10.22 -5.26,3.04 -10.52,6.07 -15.79,9.08 -1.05,0.6 -1.71,1.32 -2.06,2.24l-0.27 0.08 0 1.04c-0.03,0.24 -0.04,0.5 -0.04,0.77 0.02,4.53 0.02,9.06 0.02,13.59l0 1.94 -0 0.51c-0,3.38 -0.01,6.75 -0.02,10.13 -0.01,1.93 0.7,3.16 2.37,4.12 11.76,6.74 22.49,12.94 32.82,18.96 0.77,0.45 1.64,0.67 2.5,0.67 0.87,0 1.73,-0.22 2.5,-0.67 10.31,-6.01 21.05,-12.21 32.82,-18.96 1.05,-0.6 1.71,-1.31 2.06,-2.23l0.27 -0.08 0 -0.64 -0 -0.4c0.03,-0.24 0.04,-0.49 0.04,-0.76 -0.02,-4.38 -0.02,-8.76 -0.02,-13.14z"/>
  </g>
 </g>
</svg>
