<?xml version="1.0" encoding="UTF-8"?>
<!DOCTYPE svg PUBLIC "-//W3C//DTD SVG 1.1//EN" "http://www.w3.org/Graphics/SVG/1.1/DTD/svg11.dtd">
<!-- Creator: CorelDRAW (Evaluation Version) -->
<svg xmlns="http://www.w3.org/2000/svg" xml:space="preserve" width="142.24mm" height="94.8211mm" version="1.1" style="shape-rendering:geometricPrecision; text-rendering:geometricPrecision; image-rendering:optimizeQuality; fill-rule:evenodd; clip-rule:evenodd"
viewBox="0 0 799.33 532.86"
 xmlns:xlink="http://www.w3.org/1999/xlink"
 xmlns:xodm="http://www.corel.com/coreldraw/odm/2003">
 <defs>
  <style type="text/css">
   <![CDATA[
    .fil1 {fill:#FEFEFE;fill-rule:nonzero}
    .fil0 {fill:#373435;fill-rule:nonzero}
   ]]>
  </style>
 </defs>
 <g id="Layer_x0020_1">
  <metadata id="CorelCorpID_0Corel-Layer"/>
  <image x="-0" y="-0" width="799.33" height="532.86" xlink:href="img2_Images\img2_ImgID1.png"/>
  <g id="_2113215907888">
   <g>
    <path class="fil0" d="M254.53 257.24l0 -3.64 1.51 0 0 3.14c0,0.17 0.09,0.25 0.25,0.25 0.08,0 0.15,-0.01 0.22,-0.03l0.05 1.24c-0.26,0.11 -0.51,0.18 -0.89,0.18 -0.74,0 -1.14,-0.35 -1.14,-1.13zm-0.15 -5.07c0,-0.59 0.43,-0.91 0.94,-0.91 0.53,0 0.93,0.32 0.93,0.91 0,0.58 -0.4,0.9 -0.93,0.9 -0.51,0 -0.94,-0.32 -0.94,-0.9z"/>
    <path class="fil0" d="M258.89 253.67l0.87 0 0 1.21 -0.87 0 0 3.44 -1.51 0 0 -3.44 -0.61 0 0 -1.24 0.61 0 0 -0.36c0,-1.33 0.8,-1.97 1.74,-1.97 0.43,0 0.78,0.08 1.02,0.25l-0.45 1.29c-0.1,-0.07 -0.19,-0.09 -0.32,-0.09 -0.26,0 -0.48,0.15 -0.48,0.53l0 0.38z"/>
    <path class="fil0" d="M264.28 257.89c-0.35,0.38 -0.88,0.58 -1.49,0.58 -1.13,0 -1.82,-0.51 -1.82,-1.71l0 -1.87 -0.84 0 0 -1.19c0.79,-0.05 1.03,-0.26 1.1,-1.22l0 -0.07 1.25 0 0 1.24 1.48 0 0 1.24 -1.48 0 0 1.57c0,0.43 0.24,0.61 0.61,0.61 0.24,0 0.39,-0.08 0.55,-0.23l0.64 1.06z"/>
    <path class="fil0" d="M266.9 257.24l0 -5.82 1.51 0 0 5.37c0,0.17 0.09,0.24 0.25,0.24 0.09,0 0.16,0 0.22,-0.02l0.05 1.25c-0.26,0.11 -0.49,0.17 -0.9,0.17 -0.72,0 -1.13,-0.35 -1.13,-1.19z"/>
    <path class="fil0" d="M272.52 255.98c0,-0.73 -0.37,-1.18 -0.98,-1.18 -0.62,0 -0.97,0.45 -0.97,1.18 0,0.74 0.35,1.18 0.98,1.18 0.61,0 0.97,-0.44 0.97,-1.18zm-3.48 0.03c0,-1.48 0.99,-2.52 2.53,-2.52 1.54,0 2.48,0.92 2.48,2.46 0,1.48 -0.98,2.52 -2.53,2.52 -1.53,0 -2.48,-0.92 -2.48,-2.46z"/>
    <path class="fil0" d="M274.39 256.55l0 -2.91 1.51 0 0 2.76c0,0.49 0.2,0.72 0.61,0.72 0.63,0 0.91,-0.58 0.91,-1.68 0,-0.71 -0.17,-1.42 -0.31,-1.8l1.51 0c0.18,0.45 0.31,1.14 0.31,1.81 0,1.75 -0.6,3.02 -2.65,3.02 -1.28,0 -1.9,-0.62 -1.9,-1.91z"/>
    <path class="fil0" d="M280.79 255.65c0.85,-0.05 1.43,-0.15 1.43,-0.59 0,-0.24 -0.2,-0.37 -0.51,-0.37 -0.49,0 -0.85,0.32 -0.92,0.96zm2.97 2.16c-0.44,0.37 -1.07,0.66 -2.15,0.66 -1.41,0 -2.37,-0.76 -2.37,-2.34 0,-1.55 0.96,-2.64 2.56,-2.64 1.22,0 1.83,0.61 1.85,1.45 0.02,1.09 -0.96,1.62 -2.78,1.67 0.16,0.45 0.51,0.57 1.01,0.57 0.49,0 0.87,-0.13 1.24,-0.41l0.62 1.03z"/>
    <path class="fil0" d="M283.91 257.93l0.6 -1.13c0.45,0.32 1.03,0.47 1.66,0.47 0.56,0 0.73,-0.09 0.73,-0.29 0,-0.21 -0.15,-0.27 -1.08,-0.43 -1.21,-0.2 -1.72,-0.66 -1.72,-1.5 0,-0.98 0.77,-1.56 2.06,-1.56 1.26,0 1.93,0.41 2.07,1.41l-1.34 0.19c-0.08,-0.34 -0.3,-0.47 -0.76,-0.47 -0.44,0 -0.62,0.12 -0.62,0.35 0,0.25 0.16,0.33 1.29,0.5 1.05,0.16 1.56,0.61 1.56,1.44 0,1.03 -0.75,1.56 -2.23,1.56 -0.98,0 -1.71,-0.17 -2.2,-0.53z"/>
    <path class="fil0" d="M252.41 255.92c0,-0.18 0.01,-0.35 -0,-0.53 -0,-0.05 -0.03,-0.12 -0.07,-0.14 -0.37,-0.28 -0.77,-0.38 -1.23,-0.28 -0.41,0.09 -0.71,0.41 -0.74,0.81 -0.04,0.49 0.14,0.85 0.54,1.01 0.52,0.21 1,0.13 1.44,-0.21 0.03,-0.03 0.06,-0.08 0.06,-0.13 0.01,-0.18 0,-0.35 0,-0.53zm-2.68 2.78c0.27,0.11 0.52,0.22 0.78,0.3 0.4,0.12 0.8,0.17 1.21,0.08 0.41,-0.09 0.64,-0.34 0.68,-0.76 0.02,-0.17 0,-0.33 0,-0.51 -0.11,0.07 -0.2,0.14 -0.31,0.2 -1.24,0.63 -2.96,0.1 -3.29,-1.58 -0.17,-0.86 0.03,-1.65 0.67,-2.28 0.49,-0.47 1.1,-0.65 1.77,-0.58 0.51,0.05 0.56,0.08 1.16,0.47 0,-0.13 0,-0.26 0,-0.39 0.53,0 1.05,0 1.58,0 0,0.04 0,0.08 0,0.12 0,1.34 0,2.69 0,4.03 -0,0.52 -0.08,1.03 -0.36,1.48 -0.3,0.49 -0.74,0.81 -1.28,0.97 -0.91,0.26 -1.79,0.15 -2.65,-0.21 -0.09,-0.04 -0.22,-0.07 -0.26,-0.14 -0.04,-0.07 0.03,-0.19 0.05,-0.28 0.08,-0.32 0.16,-0.63 0.25,-0.94z"/>
   </g>
   <g>
    <path class="fil0" d="M254.69 261.23c0.17,0 0.27,-0.11 0.27,-0.25 0,-0.14 -0.09,-0.25 -0.26,-0.25l-0.28 0 0 0.5 0.28 0zm-0.52 -0.71l0.51 0c0.36,0 0.53,0.21 0.53,0.46 0,0.26 -0.18,0.46 -0.53,0.46l-0.27 0 0 0.28 -0.25 0 0 -1.2z"/>
    <path class="fil0" d="M256.37 261.23c0.17,0 0.27,-0.11 0.27,-0.25 0,-0.14 -0.11,-0.25 -0.27,-0.25l-0.27 0 0 0.5 0.27 0zm-0.52 -0.72l0.53 0c0.34,0 0.52,0.21 0.52,0.46 0,0.16 -0.08,0.3 -0.24,0.38l0.26 0.36 -0.26 0 -0.2 -0.28c-0.02,0.01 -0.07,0.01 -0.08,0.01l-0.28 0 0 0.28 -0.25 0 0 -1.2z"/>
    <polygon class="fil0" points="257.55,260.51 258.51,260.51 258.51,260.73 257.79,260.73 257.79,260.98 258.47,260.98 258.47,261.19 257.79,261.19 257.79,261.51 258.53,261.51 258.53,261.72 257.55,261.72 "/>
    <path class="fil0" d="M259.07 261.58l0.11 -0.19c0.09,0.07 0.21,0.13 0.38,0.13 0.15,0 0.24,-0.07 0.24,-0.15 0,-0.09 -0.13,-0.12 -0.27,-0.16 -0.19,-0.05 -0.4,-0.12 -0.4,-0.36 0,-0.23 0.22,-0.35 0.44,-0.35 0.18,0 0.32,0.05 0.44,0.13l-0.1 0.19c-0.11,-0.07 -0.22,-0.1 -0.35,-0.1 -0.09,0 -0.19,0.05 -0.19,0.12 0,0.08 0.11,0.11 0.25,0.15 0.19,0.06 0.43,0.13 0.43,0.38 0,0.25 -0.24,0.37 -0.49,0.37 -0.26,0 -0.42,-0.09 -0.49,-0.16z"/>
    <polygon class="fil0" points="260.7,260.51 261.66,260.51 261.66,260.73 260.94,260.73 260.94,260.98 261.62,260.98 261.62,261.19 260.94,261.19 260.94,261.51 261.68,261.51 261.68,261.72 260.7,261.72 "/>
    <path class="fil0" d="M262.29 260.51l0.26 0 0.36 0.51c0.09,0.12 0.2,0.31 0.2,0.31l0 -0.82 0.24 0 0 1.2 -0.26 0 -0.34 -0.48c-0.11,-0.16 -0.22,-0.33 -0.22,-0.33l0 0.81 -0.24 0 0 -1.2z"/>
    <polygon class="fil0" points="264.36,260.73 263.94,260.73 263.94,260.51 265.02,260.51 265.02,260.73 264.6,260.73 264.6,261.72 264.36,261.72 "/>
    <polygon class="fil0" points="265.62,260.51 266.57,260.51 266.57,260.73 265.86,260.73 265.86,260.98 266.53,260.98 266.53,261.19 265.86,261.19 265.86,261.51 266.6,261.51 266.6,261.72 265.62,261.72 "/>
    <path class="fil0" d="M267.14 261.58l0.11 -0.19c0.09,0.07 0.21,0.13 0.38,0.13 0.15,0 0.25,-0.07 0.25,-0.15 0,-0.09 -0.13,-0.12 -0.27,-0.16 -0.19,-0.05 -0.4,-0.12 -0.4,-0.36 0,-0.23 0.22,-0.35 0.44,-0.35 0.18,0 0.32,0.05 0.44,0.13l-0.1 0.19c-0.12,-0.07 -0.22,-0.1 -0.35,-0.1 -0.09,0 -0.19,0.05 -0.19,0.12 0,0.08 0.11,0.11 0.25,0.15 0.19,0.06 0.43,0.13 0.43,0.38 0,0.25 -0.24,0.37 -0.49,0.37 -0.26,0 -0.42,-0.09 -0.49,-0.16z"/>
    <path class="fil0" d="M270.24 261.46l-0.28 -0.26c-0.06,0.04 -0.1,0.1 -0.1,0.16 0,0.1 0.08,0.16 0.2,0.16 0.08,0 0.13,-0.03 0.17,-0.06zm-0.63 -0.09c0,-0.12 0.06,-0.24 0.2,-0.33 -0.05,-0.06 -0.08,-0.15 -0.08,-0.23 0,-0.14 0.12,-0.31 0.36,-0.31 0.12,0 0.26,0.03 0.35,0.24l-0.2 0.1c-0.03,-0.08 -0.08,-0.13 -0.14,-0.13 -0.07,0 -0.12,0.04 -0.12,0.12 0,0.08 0.06,0.15 0.14,0.23l0.26 0.25c0.02,-0.03 0.02,-0.06 0.02,-0.11l0.22 0c0,0.11 -0.03,0.21 -0.07,0.27l0.13 0.13 -0.14 0.15 -0.13 -0.12c-0.1,0.08 -0.23,0.12 -0.36,0.12 -0.22,0 -0.43,-0.12 -0.43,-0.37z"/>
    <polygon class="fil0" points="272.15,260.51 273.11,260.51 273.11,260.73 272.39,260.73 272.39,260.98 273.07,260.98 273.07,261.19 272.39,261.19 272.39,261.51 273.13,261.51 273.13,261.72 272.15,261.72 "/>
    <polygon class="fil0" points="273.68,261.29 274.54,261.29 274.54,261.1 273.68,261.1 "/>
    <path class="fil0" d="M275.11 261.12c0,-0.35 0.26,-0.62 0.64,-0.62 0.15,0 0.29,0.05 0.4,0.13l-0.14 0.17c-0.08,-0.06 -0.16,-0.08 -0.24,-0.08 -0.24,0 -0.4,0.18 -0.4,0.4 0,0.22 0.16,0.4 0.38,0.4 0.11,0 0.21,-0.04 0.28,-0.1l0.15 0.17c-0.11,0.1 -0.26,0.16 -0.43,0.16 -0.37,0 -0.64,-0.27 -0.64,-0.62z"/>
    <path class="fil0" d="M277.57 261.35l-0.24 -0.57 -0.24 0.57 0.48 0zm-0.36 -0.83l0.24 0 0.53 1.2 -0.25 0 -0.08 -0.18 -0.65 0 -0.08 0.18 -0.25 0 0.53 -1.2z"/>
    <path class="fil0" d="M279.08 261.23c0.17,0 0.27,-0.11 0.27,-0.25 0,-0.14 -0.11,-0.25 -0.27,-0.25l-0.27 0 0 0.5 0.27 0zm-0.52 -0.72l0.53 0c0.34,0 0.52,0.21 0.52,0.46 0,0.16 -0.09,0.3 -0.24,0.38l0.26 0.36 -0.26 0 -0.2 -0.28c-0.02,0.01 -0.07,0.01 -0.08,0.01l-0.28 0 0 0.28 -0.24 0 0 -1.2z"/>
    <path class="fil0" d="M280.72 261.51c0.24,0 0.39,-0.17 0.39,-0.39 0,-0.22 -0.16,-0.39 -0.39,-0.39l-0.22 0 0 0.78 0.22 0zm-0.47 -0.99l0.48 0c0.39,0 0.64,0.27 0.64,0.6 0,0.33 -0.25,0.6 -0.64,0.6l-0.48 0 0 -1.2z"/>
    <path class="fil0" d="M281.95 261.58l0.11 -0.19c0.09,0.07 0.21,0.13 0.38,0.13 0.15,0 0.25,-0.07 0.25,-0.15 0,-0.09 -0.13,-0.12 -0.27,-0.16 -0.19,-0.05 -0.4,-0.12 -0.4,-0.36 0,-0.23 0.22,-0.35 0.44,-0.35 0.18,0 0.32,0.05 0.44,0.13l-0.1 0.19c-0.12,-0.07 -0.22,-0.1 -0.35,-0.1 -0.09,0 -0.19,0.05 -0.19,0.12 0,0.08 0.11,0.11 0.25,0.15 0.19,0.06 0.43,0.13 0.43,0.38 0,0.25 -0.24,0.37 -0.49,0.37 -0.26,0 -0.42,-0.09 -0.49,-0.16z"/>
   </g>
   <path class="fil0" d="M268.07 240.94c0.13,0.13 0.28,0.2 0.44,0.2l0.03 0c0.01,0 0.02,0 0.03,0 0.16,-0 0.31,-0.07 0.44,-0.2 0.23,-0.23 0.47,-0.47 0.71,-0.7 0.61,-0.6 1.23,-1.21 1.83,-1.84l1.45 0.83c0.47,0.27 0.85,0.49 1.06,0.61l-0.71 0.41c-1.58,0.91 -3.13,1.81 -4.69,2.7 -0.05,0.03 -0.15,0.03 -0.19,0.01 -0.55,-0.31 -3.19,-1.84 -4.61,-2.66l-0.8 -0.46 0.46 -0.27c0.38,-0.22 0.75,-0.43 1.12,-0.65l0.92 -0.53c0.6,0.62 1.22,1.24 1.82,1.83 0.23,0.23 0.47,0.46 0.7,0.7zm-0.03 -4.74c0.1,0.09 0.19,0.16 0.3,0.19l0.07 0.02 0 -0c0.21,0.05 0.42,-0.02 0.62,-0.21 0.08,-0.08 0.16,-0.16 0.24,-0.24 0.11,-0.12 0.23,-0.24 0.35,-0.35 0.41,-0.37 1.01,-0.36 1.41,0.02 0.2,0.19 0.32,0.46 0.33,0.74 0.01,0.24 -0.08,0.47 -0.24,0.63 -0.61,0.63 -1.24,1.25 -1.86,1.84 -0.24,0.24 -0.49,0.47 -0.73,0.71l-0.11 -0.11 0 -0.03 -0.02 -0.02c-0.19,-0.18 -0.38,-0.37 -0.56,-0.55 -0.62,-0.6 -1.26,-1.23 -1.87,-1.86 -0.16,-0.17 -0.25,-0.39 -0.24,-0.63 0.01,-0.28 0.13,-0.55 0.33,-0.74 0.4,-0.38 1,-0.38 1.41,-0.02 0.12,0.11 0.24,0.23 0.35,0.34 0.08,0.08 0.16,0.16 0.24,0.24zm-5.61 5.58l0 -0.71c0,-0.04 0.01,-0.08 0.01,-0.12l0 -0.01c0,0 0.01,0 0.01,0.01 0.05,0.02 0.09,0.04 0.13,0.06 0.91,0.52 1.82,1.05 2.73,1.58 -0.94,0.55 -1.88,1.09 -2.82,1.63 -0.01,0.01 -0.02,0.01 -0.04,0.01 0,0 0,0 0,0 -0,-0.01 -0,-0.02 -0,-0.03 -0,-0.06 -0.01,-0.11 -0.01,-0.16 -0,-0.75 0,-1.5 0,-2.25zm5.5 6.36c-0.88,-0.51 -2.7,-1.56 -3.92,-2.26 -0.43,-0.25 -0.77,-0.44 -0.97,-0.56 1.18,-0.68 2.34,-1.35 3.5,-2.02l0.4 0.23c0.27,0.16 0.54,0.31 0.81,0.47 0.08,0.05 0.16,0.17 0.16,0.24 0.01,1.34 0.01,2.71 0.01,3.9zm1.23 -3.84c0,-0.1 0.06,-0.23 0.12,-0.26 0.31,-0.18 0.61,-0.36 0.92,-0.53l0.33 -0.19c0.87,0.5 1.89,1.08 2.63,1.51 0.38,0.22 0.7,0.4 0.88,0.5l-0.37 0.21c-0.41,0.24 -0.81,0.47 -1.21,0.7l-0.9 0.52c-0.8,0.46 -1.61,0.93 -2.41,1.39 -0,-1.28 0,-2.56 0.01,-3.84zm5.5 -3.16c0,0.75 -0,1.5 -0,2.25l-0 0.71c-0,0.04 -0.01,0.08 -0.01,0.12l-0 0.01c-0,-0 -0.01,-0 -0.01,-0.01 -0.05,-0.02 -0.09,-0.04 -0.13,-0.06 -0.91,-0.53 -1.82,-1.05 -2.73,-1.58 0.94,-0.55 1.88,-1.09 2.83,-1.63 0.01,-0 0.02,-0.01 0.04,-0.01 0,0.01 0,0.02 0,0.03 0,0.06 0.01,0.11 0.01,0.16zm1.24 1.44l-0 -0.47 0 -0.09c0,-0.66 0,-1.32 0.01,-1.98 0,-0.38 -0.14,-0.62 -0.46,-0.8 -1.03,-0.59 -2.07,-1.19 -3.1,-1.78 0.35,-0.62 0.4,-1.34 0.12,-1.99 -0.28,-0.65 -0.85,-1.12 -1.57,-1.29 -0.02,-0.01 -0.21,-0.04 -0.32,-0.05 -0.75,-0.06 -1.47,0.19 -1.96,0.69 -0.03,0.03 -0.06,0.06 -0.09,0.1 -0.03,-0.03 -0.06,-0.07 -0.09,-0.1 -0.49,-0.49 -1.2,-0.74 -1.96,-0.69 -0.11,0.01 -0.3,0.04 -0.32,0.05 -0.72,0.17 -1.29,0.64 -1.57,1.3 -0.27,0.65 -0.22,1.37 0.13,1.99 -1.03,0.59 -2.05,1.18 -3.08,1.77 -0.21,0.12 -0.33,0.26 -0.4,0.44l-0.05 0.02 0 0.2c-0.01,0.05 -0.01,0.1 -0.01,0.15 0,0.88 0,1.77 0,2.65l0 0.38 0 0.1c-0,0.66 -0,1.32 -0,1.98 -0,0.38 0.14,0.62 0.46,0.8 2.29,1.31 4.39,2.52 6.4,3.7 0.15,0.09 0.32,0.13 0.49,0.13 0.17,0 0.34,-0.04 0.49,-0.13 2.01,-1.17 4.11,-2.38 6.4,-3.7 0.21,-0.12 0.33,-0.26 0.4,-0.44l0.05 -0.02 0 -0.12 0 -0.08c0.01,-0.05 0.01,-0.1 0.01,-0.15 -0,-0.86 -0,-1.71 -0,-2.57z"/>
  </g>
  <g id="_2113215914368">
   <g>
    <path class="fil1" d="M608.15 488.18l0 -17.52 7.28 0 0 15.11c0,0.82 0.41,1.18 1.18,1.18 0.36,0 0.73,-0.04 1.05,-0.13l0.23 5.96c-1.23,0.55 -2.46,0.86 -4.28,0.86 -3.55,0 -5.46,-1.68 -5.46,-5.46zm-0.73 -24.39c0,-2.82 2.05,-4.37 4.51,-4.37 2.55,0 4.46,1.55 4.46,4.37 0,2.77 -1.91,4.32 -4.46,4.32 -2.46,0 -4.51,-1.55 -4.51,-4.32z"/>
    <path class="fil1" d="M629.12 471.01l4.19 0 0 5.82 -4.19 0 0 16.56 -7.28 0 0 -16.56 -2.96 0 0 -5.96 2.96 0 0 -1.73c0,-6.41 3.87,-9.46 8.37,-9.46 2.05,0 3.73,0.36 4.91,1.18l-2.14 6.19c-0.5,-0.32 -0.91,-0.41 -1.55,-0.41 -1.23,0 -2.32,0.73 -2.32,2.55l0 1.82z"/>
    <path class="fil1" d="M655.06 491.31c-1.68,1.82 -4.23,2.77 -7.14,2.77 -5.41,0 -8.74,-2.46 -8.74,-8.23l0 -9.01 -4.05 0 0 -5.73c3.78,-0.23 4.96,-1.27 5.28,-5.87l0 -0.32 6.01 0 0 5.96 7.1 0 0 5.96 -7.1 0 0 7.55c0,2.09 1.14,2.91 2.91,2.91 1.14,0 1.87,-0.36 2.64,-1.09l3.1 5.1z"/>
    <path class="fil1" d="M667.64 488.21l0 -27.98 7.28 0 0 25.84c0,0.82 0.46,1.14 1.18,1.14 0.45,0 0.77,0 1.05,-0.09l0.23 6.01c-1.23,0.55 -2.37,0.82 -4.32,0.82 -3.46,0 -5.41,-1.68 -5.41,-5.73z"/>
    <path class="fil1" d="M694.7 482.11c0,-3.5 -1.77,-5.69 -4.73,-5.69 -3,0 -4.69,2.14 -4.69,5.69 0,3.55 1.68,5.69 4.73,5.69 2.96,0 4.69,-2.1 4.69,-5.69zm-16.74 0.14c0,-7.14 4.78,-12.1 12.15,-12.1 7.42,0 11.92,4.41 11.92,11.83 0,7.14 -4.73,12.1 -12.15,12.1 -7.37,0 -11.92,-4.41 -11.92,-11.83z"/>
    <path class="fil1" d="M703.68 484.89l0 -14.01 7.28 0 0 13.29c0,2.37 0.96,3.46 2.96,3.46 3.05,0 4.37,-2.78 4.37,-8.1 0,-3.41 -0.82,-6.83 -1.5,-8.65l7.28 0c0.86,2.19 1.5,5.46 1.5,8.69 0,8.42 -2.87,14.51 -12.74,14.51 -6.14,0 -9.15,-3 -9.15,-9.19z"/>
    <path class="fil1" d="M734.46 480.52c4.1,-0.23 6.87,-0.73 6.87,-2.82 0,-1.14 -0.96,-1.77 -2.46,-1.77 -2.37,0 -4.09,1.55 -4.41,4.6zm14.29 10.37c-2.14,1.78 -5.14,3.18 -10.33,3.18 -6.78,0 -11.38,-3.64 -11.38,-11.24 0,-7.47 4.6,-12.7 12.33,-12.7 5.87,0 8.83,2.91 8.92,6.96 0.09,5.23 -4.64,7.78 -13.38,8.05 0.77,2.19 2.46,2.73 4.87,2.73 2.37,0 4.19,-0.64 5.96,-1.96l3 4.96z"/>
    <path class="fil1" d="M749.48 491.53l2.87 -5.41c2.18,1.55 4.96,2.27 7.96,2.27 2.69,0 3.5,-0.45 3.5,-1.41 0,-1 -0.73,-1.32 -5.19,-2.09 -5.82,-0.95 -8.28,-3.18 -8.28,-7.23 0,-4.73 3.69,-7.51 9.92,-7.51 6.05,0 9.28,1.96 9.97,6.78l-6.46 0.91c-0.36,-1.64 -1.46,-2.27 -3.64,-2.27 -2.14,0 -3,0.59 -3,1.68 0,1.18 0.77,1.59 6.19,2.41 5.05,0.77 7.51,2.91 7.51,6.92 0,4.96 -3.59,7.51 -10.74,7.51 -4.73,0 -8.24,-0.82 -10.6,-2.55z"/>
    <path class="fil1" d="M597.96 481.84c0,-0.85 0.02,-1.69 -0.02,-2.53 -0.01,-0.24 -0.15,-0.55 -0.33,-0.7 -1.76,-1.35 -3.72,-1.84 -5.91,-1.34 -1.99,0.45 -3.41,1.99 -3.58,3.87 -0.21,2.34 0.69,4.11 2.6,4.88 2.49,1 4.83,0.61 6.95,-1.02 0.16,-0.12 0.27,-0.4 0.27,-0.61 0.03,-0.84 0.01,-1.69 0.01,-2.54zm-12.89 13.37c1.28,0.51 2.49,1.07 3.76,1.46 1.9,0.58 3.86,0.81 5.84,0.37 1.96,-0.44 3.06,-1.64 3.26,-3.64 0.08,-0.79 0.01,-1.6 0.01,-2.45 -0.52,0.33 -0.98,0.68 -1.48,0.94 -5.96,3.04 -14.22,0.49 -15.83,-7.59 -0.83,-4.16 0.13,-7.93 3.24,-10.95 2.35,-2.28 5.27,-3.12 8.5,-2.8 2.47,0.25 2.7,0.4 5.58,2.25 0,-0.64 0,-1.24 0,-1.87 2.55,0 5.04,0 7.6,0 0,0.21 0,0.4 0,0.59 0,6.47 0,12.94 -0,19.41 -0,2.52 -0.4,4.94 -1.73,7.14 -1.44,2.38 -3.54,3.91 -6.17,4.66 -4.36,1.24 -8.61,0.71 -12.75,-0.99 -0.45,-0.18 -1.07,-0.32 -1.26,-0.67 -0.17,-0.31 0.14,-0.89 0.25,-1.35 0.39,-1.51 0.79,-3.03 1.18,-4.51z"/>
   </g>
   <g>
    <path class="fil1" d="M608.92 507.38c0.84,0 1.28,-0.54 1.28,-1.21 0,-0.67 -0.44,-1.21 -1.27,-1.21l-1.35 0 0 2.42 1.34 0zm-2.52 -3.43l2.46 0c1.72,0 2.57,1 2.57,2.23 0,1.23 -0.85,2.21 -2.57,2.21l-1.28 0 0 1.34 -1.18 0 0 -5.78z"/>
    <path class="fil1" d="M617.02 507.39c0.8,0 1.31,-0.55 1.31,-1.21 0,-0.68 -0.51,-1.22 -1.3,-1.22l-1.32 0 0 2.43 1.31 0zm-2.49 -3.44l2.54 0c1.63,0 2.49,1 2.49,2.23 0,0.78 -0.41,1.46 -1.15,1.84l1.24 1.71 -1.24 0 -0.96 -1.37c-0.11,0.03 -0.33,0.04 -0.39,0.04l-1.35 0 0 1.33 -1.18 0 0 -5.78z"/>
    <polygon class="fil1" points="622.67,503.94 627.28,503.94 627.28,504.96 623.85,504.96 623.85,506.2 627.08,506.2 627.08,507.2 623.85,507.2 623.85,508.71 627.4,508.71 627.4,509.72 622.67,509.72 "/>
    <path class="fil1" d="M630.01 509.07l0.51 -0.93c0.42,0.36 1.01,0.63 1.81,0.63 0.71,0 1.18,-0.32 1.18,-0.74 0,-0.43 -0.62,-0.59 -1.32,-0.79 -0.9,-0.25 -1.93,-0.6 -1.93,-1.72 0,-1.12 1.06,-1.66 2.13,-1.66 0.86,0 1.54,0.25 2.13,0.64l-0.46 0.92c-0.55,-0.35 -1.08,-0.49 -1.67,-0.49 -0.45,0 -0.9,0.22 -0.9,0.57 0,0.39 0.54,0.53 1.19,0.72 0.93,0.28 2.07,0.63 2.07,1.82 0,1.22 -1.17,1.79 -2.37,1.79 -1.27,0 -2,-0.44 -2.37,-0.76z"/>
    <polygon class="fil1" points="637.82,503.94 642.43,503.94 642.43,504.96 639,504.96 639,506.2 642.24,506.2 642.24,507.2 639,507.2 639,508.71 642.56,508.71 642.56,509.72 637.82,509.72 "/>
    <path class="fil1" d="M645.46 503.94l1.23 0 1.74 2.45c0.42,0.59 0.94,1.49 0.94,1.49l0 -3.95 1.18 0 0 5.78 -1.24 0 -1.64 -2.29c-0.53,-0.75 -1.04,-1.61 -1.04,-1.61l0 3.9 -1.18 0 0 -5.78z"/>
    <polygon class="fil1" points="655.43,504.96 653.43,504.96 653.43,503.94 658.6,503.94 658.6,504.96 656.61,504.96 656.61,509.72 655.43,509.72 "/>
    <polygon class="fil1" points="661.48,503.94 666.09,503.94 666.09,504.96 662.66,504.96 662.66,506.2 665.89,506.2 665.89,507.2 662.66,507.2 662.66,508.71 666.21,508.71 666.21,509.72 661.48,509.72 "/>
    <path class="fil1" d="M668.82 509.07l0.51 -0.93c0.42,0.36 1.01,0.63 1.81,0.63 0.71,0 1.18,-0.32 1.18,-0.74 0,-0.43 -0.63,-0.59 -1.32,-0.79 -0.9,-0.25 -1.94,-0.6 -1.94,-1.72 0,-1.12 1.07,-1.66 2.13,-1.66 0.86,0 1.54,0.25 2.13,0.64l-0.46 0.92c-0.55,-0.35 -1.08,-0.49 -1.67,-0.49 -0.45,0 -0.9,0.22 -0.9,0.57 0,0.39 0.54,0.53 1.19,0.72 0.93,0.28 2.07,0.63 2.07,1.82 0,1.22 -1.17,1.79 -2.37,1.79 -1.27,0 -2,-0.44 -2.37,-0.76z"/>
    <path class="fil1" d="M683.7 508.5l-1.34 -1.27c-0.29,0.19 -0.46,0.46 -0.46,0.77 0,0.46 0.4,0.78 0.96,0.78 0.4,0 0.65,-0.12 0.84,-0.28zm-3.03 -0.44c0,-0.57 0.31,-1.17 0.97,-1.6 -0.25,-0.31 -0.37,-0.7 -0.37,-1.09 0,-0.68 0.56,-1.51 1.75,-1.51 0.56,0 1.24,0.15 1.68,1.15l-0.96 0.48c-0.13,-0.36 -0.39,-0.62 -0.7,-0.62 -0.32,0 -0.57,0.19 -0.57,0.59 0,0.41 0.28,0.74 0.65,1.11l1.23 1.2c0.07,-0.12 0.09,-0.3 0.09,-0.51l1.04 0c0,0.54 -0.12,1.02 -0.33,1.28l0.62 0.61 -0.69 0.71 -0.61 -0.59c-0.48,0.37 -1.12,0.56 -1.72,0.56 -1.08,0 -2.09,-0.56 -2.09,-1.76z"/>
    <polygon class="fil1" points="692.9,503.94 697.51,503.94 697.51,504.96 694.08,504.96 694.08,506.2 697.32,506.2 697.32,507.2 694.08,507.2 694.08,508.71 697.64,508.71 697.64,509.72 692.9,509.72 "/>
    <polygon class="fil1" points="700.24,507.68 704.38,507.68 704.38,506.75 700.24,506.75 "/>
    <path class="fil1" d="M707.17 506.83c0,-1.67 1.26,-2.97 3.05,-2.97 0.74,0 1.41,0.23 1.92,0.64l-0.68 0.8c-0.37,-0.28 -0.75,-0.37 -1.16,-0.37 -1.15,0 -1.9,0.86 -1.9,1.91 0,1.06 0.77,1.93 1.83,1.93 0.51,0 0.99,-0.17 1.35,-0.5l0.71 0.81c-0.53,0.47 -1.25,0.76 -2.07,0.76 -1.79,0 -3.05,-1.31 -3.05,-2.99z"/>
    <path class="fil1" d="M718.98 507.94l-1.14 -2.74 -1.16 2.74 2.29 0zm-1.71 -4.01l1.15 0 2.54 5.79 -1.19 0 -0.39 -0.85 -3.1 0 -0.37 0.85 -1.19 0 2.55 -5.79z"/>
    <path class="fil1" d="M726.22 507.39c0.8,0 1.31,-0.55 1.31,-1.21 0,-0.68 -0.51,-1.22 -1.3,-1.22l-1.32 0 0 2.43 1.31 0zm-2.49 -3.44l2.54 0c1.63,0 2.49,1 2.49,2.23 0,0.78 -0.41,1.46 -1.15,1.84l1.24 1.71 -1.24 0 -0.96 -1.37c-0.11,0.03 -0.33,0.04 -0.39,0.04l-1.35 0 0 1.33 -1.18 0 0 -5.78z"/>
    <path class="fil1" d="M734.13 508.71c1.14,0 1.89,-0.8 1.89,-1.87 0,-1.08 -0.76,-1.88 -1.89,-1.88l-1.08 0 0 3.75 1.08 0zm-2.25 -4.77l2.3 0c1.89,0 3.08,1.31 3.08,2.89 0,1.58 -1.19,2.89 -3.08,2.89l-2.3 0 0 -5.78z"/>
    <path class="fil1" d="M740.04 509.07l0.51 -0.93c0.42,0.36 1.01,0.63 1.81,0.63 0.71,0 1.18,-0.32 1.18,-0.74 0,-0.43 -0.62,-0.59 -1.32,-0.79 -0.9,-0.25 -1.94,-0.6 -1.94,-1.72 0,-1.12 1.06,-1.66 2.13,-1.66 0.86,0 1.54,0.25 2.13,0.64l-0.46 0.92c-0.55,-0.35 -1.08,-0.49 -1.67,-0.49 -0.45,0 -0.9,0.22 -0.9,0.57 0,0.39 0.54,0.53 1.19,0.72 0.93,0.28 2.07,0.63 2.07,1.82 0,1.22 -1.17,1.79 -2.37,1.79 -1.27,0 -2,-0.44 -2.37,-0.76z"/>
   </g>
   <path class="fil1" d="M673.29 409.79c0.61,0.61 1.34,0.94 2.1,0.96l0.13 0c0.04,0 0.09,0 0.14,0 0.77,-0.02 1.49,-0.35 2.11,-0.96 1.13,-1.12 2.26,-2.24 3.39,-3.36 2.91,-2.87 5.92,-5.84 8.8,-8.84l6.96 4.01c2.25,1.3 4.09,2.36 5.11,2.95l-3.4 1.97c-7.61,4.39 -15.07,8.7 -22.55,12.98 -0.24,0.14 -0.72,0.16 -0.93,0.04 -2.62,-1.48 -15.35,-8.83 -22.18,-12.77l-3.84 -2.22 2.2 -1.28c1.83,-1.06 3.61,-2.09 5.38,-3.12l4.41 -2.54c2.87,3 5.87,5.96 8.78,8.82 1.13,1.11 2.26,2.23 3.39,3.35zm-0.13 -22.79c0.46,0.44 0.94,0.76 1.43,0.93l0.35 0.09 0 -0.01c1.01,0.26 2,-0.08 2.96,-1.01 0.39,-0.37 0.76,-0.76 1.14,-1.14 0.55,-0.55 1.11,-1.13 1.7,-1.66 1.96,-1.77 4.87,-1.74 6.77,0.08 0.98,0.93 1.55,2.23 1.58,3.56 0.02,1.17 -0.39,2.25 -1.16,3.05 -2.92,3.02 -5.98,5.99 -8.95,8.87 -1.18,1.14 -2.35,2.28 -3.52,3.43l-0.52 -0.52 0 -0.13 -0.08 -0.08c-0.9,-0.88 -1.81,-1.76 -2.71,-2.63 -2.99,-2.9 -6.08,-5.9 -9.02,-8.94 -0.77,-0.8 -1.18,-1.88 -1.16,-3.05 0.03,-1.33 0.6,-2.63 1.58,-3.56 1.91,-1.82 4.82,-1.85 6.77,-0.08 0.58,0.52 1.15,1.1 1.7,1.66 0.38,0.39 0.75,0.77 1.14,1.14zm-26.97 26.84l0 -3.4c0.01,-0.18 0.03,-0.37 0.05,-0.58l0 -0.04c0.02,0.01 0.04,0.02 0.06,0.03 0.23,0.09 0.43,0.17 0.6,0.27 4.37,2.52 8.75,5.05 13.12,7.58 -4.53,2.62 -9.05,5.24 -13.59,7.85 -0.04,0.02 -0.1,0.04 -0.21,0.07 0,0 0,0 0,0 -0,-0.06 -0.01,-0.11 -0.01,-0.16 -0.02,-0.29 -0.04,-0.54 -0.04,-0.79 -0,-3.61 0,-7.22 0.01,-10.83zm26.45 30.59c-4.25,-2.48 -13,-7.52 -18.85,-10.89 -2.05,-1.18 -3.71,-2.14 -4.66,-2.69 5.69,-3.28 11.27,-6.51 16.84,-9.71l1.95 1.13c1.3,0.76 2.61,1.51 3.91,2.27 0.38,0.23 0.78,0.8 0.78,1.13 0.03,6.43 0.04,13.02 0.03,18.75zm5.9 -18.48c0,-0.47 0.28,-1.1 0.56,-1.27 1.48,-0.86 2.95,-1.72 4.43,-2.57l1.59 -0.92c4.17,2.4 9.07,5.2 12.66,7.25 1.85,1.06 3.35,1.91 4.24,2.42l-1.77 1.02c-1.99,1.15 -3.9,2.26 -5.82,3.37l-4.33 2.5c-3.87,2.23 -7.74,4.46 -11.6,6.7 -0,-6.16 -0,-12.32 0.02,-18.49zm26.44 -15.21c0,3.61 -0,7.22 -0.01,10.83l-0 3.41c-0.01,0.18 -0.03,0.37 -0.05,0.58l-0 0.04c-0.02,-0.01 -0.04,-0.02 -0.06,-0.03 -0.23,-0.09 -0.43,-0.17 -0.61,-0.27 -4.38,-2.53 -8.75,-5.06 -13.12,-7.59 4.53,-2.62 9.06,-5.23 13.59,-7.85 0.04,-0.02 0.1,-0.04 0.21,-0.07 0,0.05 0.01,0.11 0.01,0.16 0.02,0.28 0.04,0.54 0.04,0.79zm5.96 6.92l-0 -2.25 0 -0.45c0,-3.18 0.01,-6.36 0.02,-9.54 0.01,-1.81 -0.66,-2.96 -2.23,-3.86 -4.97,-2.85 -9.93,-5.71 -14.89,-8.58 1.69,-2.99 1.91,-6.47 0.6,-9.57 -1.33,-3.13 -4.07,-5.4 -7.53,-6.22 -0.1,-0.02 -0.99,-0.18 -1.53,-0.22 -3.62,-0.27 -7.05,0.94 -9.41,3.31 -0.14,0.15 -0.29,0.3 -0.44,0.47 -0.14,-0.17 -0.29,-0.32 -0.44,-0.47 -2.35,-2.37 -5.78,-3.57 -9.4,-3.31 -0.55,0.04 -1.43,0.2 -1.53,0.22 -3.47,0.83 -6.23,3.1 -7.55,6.25 -1.31,3.12 -1.07,6.6 0.64,9.59 -4.94,2.85 -9.88,5.7 -14.82,8.53 -0.99,0.57 -1.6,1.24 -1.94,2.1l-0.25 0.08 0 0.97c-0.03,0.23 -0.04,0.47 -0.04,0.72 0.02,4.25 0.02,8.51 0.02,12.76l0 1.82 -0 0.48c-0,3.17 -0.01,6.34 -0.02,9.51 -0.01,1.81 0.66,2.97 2.23,3.86 11.04,6.32 21.12,12.14 30.81,17.8 0.72,0.42 1.54,0.63 2.35,0.63 0.81,0 1.63,-0.21 2.35,-0.63 9.68,-5.64 19.76,-11.46 30.81,-17.8 0.99,-0.57 1.61,-1.23 1.94,-2.1l0.25 -0.08 0 -0.6 -0 -0.38c0.03,-0.22 0.04,-0.46 0.04,-0.72 -0.02,-4.11 -0.02,-8.23 -0.02,-12.34z"/>
  </g>
 </g>
</svg>
