<?xml version="1.0" encoding="UTF-8"?>
<!DOCTYPE svg PUBLIC "-//W3C//DTD SVG 1.1//EN" "http://www.w3.org/Graphics/SVG/1.1/DTD/svg11.dtd">
<!-- Creator: CorelDRAW (Evaluation Version) -->
<svg xmlns="http://www.w3.org/2000/svg" xml:space="preserve" width="142.24mm" height="94.873mm" version="1.1" style="shape-rendering:geometricPrecision; text-rendering:geometricPrecision; image-rendering:optimizeQuality; fill-rule:evenodd; clip-rule:evenodd"
viewBox="0 0 799.64 533.35"
 xmlns:xlink="http://www.w3.org/1999/xlink"
 xmlns:xodm="http://www.corel.com/coreldraw/odm/2003">
 <defs>
  <style type="text/css">
   <![CDATA[
    .fil0 {fill:#FEFEFE;fill-rule:nonzero}
   ]]>
  </style>
 </defs>
 <g id="Layer_x0020_1">
  <metadata id="CorelCorpID_0Corel-Layer"/>
  <image transform="matrix(-0.205078 -0 -0 0.205078 799.637 0)" x="0" y="0" width="3899.18" height="2600.72" xlink:href="img3_Images\img3_ImgID1.png"/>
  <g id="_2113221321456">
   <g>
    <path class="fil0" d="M113.21 198.44l0 -18.88 7.84 0 0 16.28c0,0.88 0.44,1.27 1.27,1.27 0.39,0 0.78,-0.05 1.13,-0.15l0.24 6.42c-1.32,0.59 -2.65,0.93 -4.61,0.93 -3.82,0 -5.88,-1.81 -5.88,-5.88zm-0.78 -26.28c0,-3.04 2.21,-4.71 4.85,-4.71 2.75,0 4.8,1.67 4.8,4.71 0,2.99 -2.06,4.66 -4.8,4.66 -2.65,0 -4.85,-1.67 -4.85,-4.66z"/>
    <path class="fil0" d="M135.8 179.94l4.51 0 0 6.28 -4.51 0 0 17.84 -7.84 0 0 -17.84 -3.19 0 0 -6.43 3.19 0 0 -1.86c0,-6.91 4.17,-10.2 9.02,-10.2 2.21,0 4.02,0.39 5.29,1.27l-2.3 6.67c-0.54,-0.34 -0.98,-0.44 -1.67,-0.44 -1.32,0 -2.5,0.79 -2.5,2.75l0 1.96z"/>
    <path class="fil0" d="M163.74 201.81c-1.81,1.96 -4.56,2.99 -7.7,2.99 -5.83,0 -9.41,-2.65 -9.41,-8.87l0 -9.71 -4.36 0 0 -6.18c4.07,-0.25 5.34,-1.37 5.69,-6.32l0 -0.35 6.47 0 0 6.42 7.65 0 0 6.43 -7.65 0 0 8.14c0,2.25 1.22,3.14 3.14,3.14 1.23,0 2.01,-0.39 2.84,-1.18l3.33 5.49z"/>
    <path class="fil0" d="M177.3 198.47l0 -30.15 7.84 0 0 27.85c0,0.88 0.49,1.23 1.27,1.23 0.49,0 0.83,0 1.13,-0.1l0.25 6.47c-1.32,0.59 -2.55,0.88 -4.66,0.88 -3.73,0 -5.83,-1.82 -5.83,-6.18z"/>
    <path class="fil0" d="M206.45 191.9c0,-3.78 -1.91,-6.13 -5.1,-6.13 -3.24,0 -5.05,2.31 -5.05,6.13 0,3.83 1.81,6.13 5.1,6.13 3.19,0 5.05,-2.26 5.05,-6.13zm-18.04 0.15c0,-7.7 5.15,-13.04 13.09,-13.04 7.99,0 12.84,4.75 12.84,12.75 0,7.7 -5.1,13.04 -13.09,13.04 -7.94,0 -12.84,-4.75 -12.84,-12.74z"/>
    <path class="fil0" d="M216.13 194.89l0 -15.1 7.84 0 0 14.32c0,2.55 1.03,3.73 3.19,3.73 3.28,0 4.71,-2.99 4.71,-8.73 0,-3.68 -0.88,-7.35 -1.62,-9.32l7.84 0c0.93,2.36 1.62,5.88 1.62,9.37 0,9.07 -3.09,15.64 -13.73,15.64 -6.62,0 -9.85,-3.23 -9.85,-9.9z"/>
    <path class="fil0" d="M249.29 190.19c4.41,-0.25 7.4,-0.78 7.4,-3.04 0,-1.22 -1.03,-1.91 -2.65,-1.91 -2.55,0 -4.41,1.67 -4.76,4.95zm15.39 11.18c-2.3,1.91 -5.54,3.43 -11.13,3.43 -7.31,0 -12.26,-3.92 -12.26,-12.11 0,-8.04 4.95,-13.68 13.29,-13.68 6.32,0 9.51,3.14 9.61,7.5 0.1,5.64 -5,8.38 -14.41,8.67 0.83,2.36 2.65,2.95 5.25,2.95 2.55,0 4.51,-0.69 6.42,-2.11l3.23 5.34z"/>
    <path class="fil0" d="M265.47 202.05l3.09 -5.83c2.35,1.67 5.34,2.45 8.58,2.45 2.89,0 3.77,-0.49 3.77,-1.52 0,-1.08 -0.78,-1.42 -5.59,-2.25 -6.27,-1.03 -8.92,-3.43 -8.92,-7.79 0,-5.1 3.97,-8.09 10.69,-8.09 6.52,0 10,2.11 10.74,7.31l-6.96 0.98c-0.39,-1.76 -1.57,-2.45 -3.92,-2.45 -2.3,0 -3.24,0.64 -3.24,1.81 0,1.27 0.83,1.72 6.67,2.6 5.44,0.84 8.09,3.14 8.09,7.45 0,5.34 -3.87,8.09 -11.57,8.09 -5.1,0 -8.87,-0.88 -11.42,-2.74z"/>
    <path class="fil0" d="M102.23 191.6c0,-0.91 0.03,-1.82 -0.02,-2.73 -0.01,-0.26 -0.16,-0.6 -0.36,-0.75 -1.89,-1.45 -4.01,-1.98 -6.37,-1.45 -2.14,0.48 -3.68,2.14 -3.86,4.17 -0.23,2.52 0.74,4.42 2.81,5.25 2.68,1.08 5.2,0.66 7.49,-1.1 0.17,-0.13 0.29,-0.43 0.29,-0.66 0.03,-0.91 0.01,-1.82 0.01,-2.73zm-13.89 14.41c1.38,0.55 2.69,1.15 4.05,1.58 2.05,0.63 4.16,0.87 6.29,0.4 2.11,-0.47 3.3,-1.77 3.51,-3.93 0.08,-0.86 0.01,-1.73 0.01,-2.64 -0.56,0.35 -1.05,0.74 -1.6,1.01 -6.43,3.28 -15.32,0.53 -17.05,-8.18 -0.89,-4.48 0.14,-8.55 3.49,-11.8 2.54,-2.45 5.68,-3.37 9.15,-3.02 2.66,0.26 2.9,0.43 6.01,2.43 0,-0.69 0,-1.34 0,-2.02 2.75,0 5.44,0 8.19,0 0,0.23 0,0.43 0,0.64 0,6.97 0,13.94 -0,20.91 -0,2.71 -0.43,5.32 -1.86,7.7 -1.55,2.56 -3.81,4.21 -6.65,5.02 -4.7,1.33 -9.27,0.76 -13.74,-1.07 -0.49,-0.2 -1.15,-0.34 -1.36,-0.72 -0.18,-0.34 0.15,-0.96 0.27,-1.45 0.42,-1.63 0.85,-3.26 1.27,-4.86z"/>
   </g>
   <g>
    <path class="fil0" d="M114.03 219.12c0.9,0 1.38,-0.58 1.38,-1.3 0,-0.72 -0.48,-1.3 -1.37,-1.3l-1.46 0 0 2.6 1.45 0zm-2.71 -3.7l2.65 0c1.85,0 2.77,1.08 2.77,2.4 0,1.33 -0.92,2.38 -2.77,2.38l-1.38 0 0 1.44 -1.27 0 0 -6.22z"/>
    <path class="fil0" d="M122.76 219.13c0.86,0 1.41,-0.59 1.41,-1.3 0,-0.74 -0.55,-1.31 -1.4,-1.31l-1.42 0 0 2.62 1.41 0zm-2.68 -3.71l2.74 0c1.76,0 2.68,1.08 2.68,2.41 0,0.84 -0.44,1.57 -1.23,1.98l1.33 1.84 -1.33 0 -1.04 -1.48c-0.12,0.03 -0.35,0.05 -0.42,0.05l-1.46 0 0 1.43 -1.27 0 0 -6.22z"/>
    <polygon class="fil0" points="128.85,215.42 133.81,215.42 133.81,216.51 130.11,216.51 130.11,217.85 133.6,217.85 133.6,218.93 130.11,218.93 130.11,220.55 133.94,220.55 133.94,221.64 128.85,221.64 "/>
    <path class="fil0" d="M136.76 220.94l0.55 -1.01c0.45,0.38 1.09,0.68 1.95,0.68 0.76,0 1.27,-0.35 1.27,-0.79 0,-0.46 -0.67,-0.64 -1.42,-0.85 -0.97,-0.27 -2.08,-0.64 -2.08,-1.85 0,-1.21 1.15,-1.79 2.29,-1.79 0.93,0 1.66,0.26 2.3,0.69l-0.5 0.99c-0.6,-0.38 -1.16,-0.53 -1.8,-0.53 -0.48,0 -0.97,0.23 -0.97,0.61 0,0.42 0.58,0.57 1.28,0.77 1,0.3 2.23,0.68 2.23,1.96 0,1.31 -1.26,1.93 -2.55,1.93 -1.37,0 -2.15,-0.47 -2.55,-0.81z"/>
    <polygon class="fil0" points="145.17,215.42 150.14,215.42 150.14,216.51 146.44,216.51 146.44,217.85 149.93,217.85 149.93,218.93 146.44,218.93 146.44,220.55 150.27,220.55 150.27,221.64 145.17,221.64 "/>
    <path class="fil0" d="M153.4 215.42l1.32 0 1.88 2.64c0.45,0.64 1.02,1.61 1.02,1.61l0 -4.25 1.27 0 0 6.22 -1.34 0 -1.77 -2.47c-0.57,-0.81 -1.12,-1.74 -1.12,-1.74l0 4.21 -1.27 0 0 -6.22z"/>
    <polygon class="fil0" points="164.14,216.51 161.99,216.51 161.99,215.42 167.56,215.42 167.56,216.51 165.41,216.51 165.41,221.64 164.14,221.64 "/>
    <polygon class="fil0" points="170.66,215.42 175.63,215.42 175.63,216.51 171.93,216.51 171.93,217.85 175.42,217.85 175.42,218.93 171.93,218.93 171.93,220.55 175.76,220.55 175.76,221.64 170.66,221.64 "/>
    <path class="fil0" d="M178.57 220.94l0.55 -1.01c0.45,0.38 1.09,0.68 1.95,0.68 0.76,0 1.27,-0.35 1.27,-0.79 0,-0.46 -0.67,-0.64 -1.42,-0.85 -0.97,-0.27 -2.09,-0.64 -2.09,-1.85 0,-1.21 1.15,-1.79 2.29,-1.79 0.93,0 1.66,0.26 2.3,0.69l-0.5 0.99c-0.6,-0.38 -1.16,-0.53 -1.8,-0.53 -0.48,0 -0.97,0.23 -0.97,0.61 0,0.42 0.59,0.57 1.28,0.77 1.01,0.3 2.23,0.68 2.23,1.96 0,1.31 -1.26,1.93 -2.55,1.93 -1.37,0 -2.15,-0.47 -2.55,-0.81z"/>
    <path class="fil0" d="M194.6 220.33l-1.45 -1.37c-0.31,0.21 -0.5,0.49 -0.5,0.83 0,0.5 0.43,0.84 1.04,0.84 0.43,0 0.7,-0.13 0.91,-0.3zm-3.27 -0.47c0,-0.62 0.33,-1.26 1.05,-1.72 -0.26,-0.33 -0.4,-0.75 -0.4,-1.17 0,-0.74 0.61,-1.63 1.89,-1.63 0.61,0 1.33,0.17 1.81,1.24l-1.04 0.52c-0.14,-0.39 -0.42,-0.67 -0.75,-0.67 -0.34,0 -0.62,0.2 -0.62,0.63 0,0.44 0.3,0.79 0.71,1.2l1.32 1.29c0.08,-0.13 0.1,-0.33 0.1,-0.55l1.12 0c0,0.58 -0.13,1.1 -0.35,1.38l0.67 0.65 -0.74 0.76 -0.66 -0.64c-0.52,0.4 -1.2,0.6 -1.85,0.6 -1.16,0 -2.25,-0.6 -2.25,-1.9z"/>
    <polygon class="fil0" points="204.52,215.42 209.48,215.42 209.48,216.51 205.79,216.51 205.79,217.85 209.27,217.85 209.27,218.93 205.79,218.93 205.79,220.55 209.62,220.55 209.62,221.64 204.52,221.64 "/>
    <polygon class="fil0" points="212.43,219.45 216.89,219.45 216.89,218.44 212.43,218.44 "/>
    <path class="fil0" d="M219.89 218.53c0,-1.8 1.36,-3.2 3.29,-3.2 0.79,0 1.52,0.25 2.06,0.69l-0.73 0.86c-0.4,-0.3 -0.81,-0.4 -1.25,-0.4 -1.24,0 -2.05,0.93 -2.05,2.05 0,1.14 0.83,2.07 1.98,2.07 0.55,0 1.07,-0.19 1.46,-0.54l0.76 0.87c-0.57,0.51 -1.35,0.81 -2.23,0.81 -1.93,0 -3.29,-1.41 -3.29,-3.22z"/>
    <path class="fil0" d="M232.61 219.73l-1.23 -2.95 -1.25 2.95 2.47 0zm-1.84 -4.32l1.24 0 2.74 6.23 -1.28 0 -0.42 -0.92 -3.34 0 -0.4 0.92 -1.28 0 2.75 -6.23z"/>
    <path class="fil0" d="M240.42 219.13c0.86,0 1.41,-0.59 1.41,-1.3 0,-0.74 -0.55,-1.31 -1.4,-1.31l-1.42 0 0 2.62 1.41 0zm-2.68 -3.71l2.74 0c1.76,0 2.68,1.08 2.68,2.41 0,0.84 -0.44,1.57 -1.24,1.98l1.34 1.84 -1.34 0 -1.04 -1.48c-0.12,0.03 -0.35,0.05 -0.42,0.05l-1.46 0 0 1.43 -1.27 0 0 -6.22z"/>
    <path class="fil0" d="M248.94 220.55c1.22,0 2.04,-0.86 2.04,-2.02 0,-1.16 -0.82,-2.02 -2.04,-2.02l-1.16 0 0 4.04 1.16 0zm-2.43 -5.13l2.47 0c2.04,0 3.32,1.41 3.32,3.12 0,1.7 -1.28,3.11 -3.32,3.11l-2.47 0 0 -6.22z"/>
    <path class="fil0" d="M255.3 220.94l0.55 -1.01c0.45,0.38 1.09,0.68 1.95,0.68 0.76,0 1.27,-0.35 1.27,-0.79 0,-0.46 -0.67,-0.64 -1.42,-0.85 -0.97,-0.27 -2.09,-0.64 -2.09,-1.85 0,-1.21 1.15,-1.79 2.3,-1.79 0.93,0 1.66,0.26 2.3,0.69l-0.5 0.99c-0.6,-0.38 -1.16,-0.53 -1.8,-0.53 -0.49,0 -0.97,0.23 -0.97,0.61 0,0.42 0.58,0.57 1.28,0.77 1,0.3 2.23,0.68 2.23,1.96 0,1.31 -1.26,1.93 -2.55,1.93 -1.37,0 -2.15,-0.47 -2.55,-0.81z"/>
   </g>
   <path class="fil0" d="M183.39 113.98c0.66,0.66 1.44,1.01 2.26,1.04l0.14 0c0.05,0 0.1,0 0.15,0 0.83,-0.02 1.61,-0.38 2.27,-1.04 1.21,-1.21 2.44,-2.41 3.66,-3.62 3.14,-3.09 6.38,-6.29 9.48,-9.53l7.5 4.32c2.43,1.4 4.41,2.54 5.51,3.17l-3.67 2.12c-8.2,4.73 -16.24,9.37 -24.29,13.99 -0.26,0.15 -0.77,0.17 -1,0.05 -2.83,-1.59 -16.54,-9.51 -23.9,-13.76l-4.14 -2.39 2.37 -1.38c1.98,-1.14 3.89,-2.25 5.8,-3.36l4.75 -2.74c3.09,3.23 6.33,6.42 9.46,9.51 1.22,1.2 2.43,2.4 3.65,3.61zm-0.14 -24.56c0.49,0.48 1.01,0.81 1.54,1l0.37 0.09 0 -0.01c1.08,0.28 2.16,-0.08 3.19,-1.09 0.42,-0.4 0.82,-0.81 1.23,-1.23 0.59,-0.6 1.2,-1.22 1.83,-1.79 2.11,-1.91 5.25,-1.87 7.3,0.09 1.05,1 1.67,2.4 1.7,3.84 0.03,1.26 -0.42,2.42 -1.25,3.28 -3.14,3.25 -6.45,6.46 -9.64,9.55 -1.27,1.23 -2.53,2.46 -3.8,3.7l-0.56 -0.56 0 -0.14 -0.08 -0.08c-0.97,-0.95 -1.95,-1.89 -2.92,-2.83 -3.22,-3.13 -6.55,-6.36 -9.72,-9.63 -0.83,-0.86 -1.28,-2.02 -1.25,-3.28 0.03,-1.44 0.65,-2.84 1.7,-3.84 2.05,-1.96 5.19,-1.99 7.3,-0.08 0.63,0.57 1.24,1.19 1.83,1.78 0.41,0.42 0.81,0.83 1.23,1.23zm-29.06 28.91l0 -3.67c0.01,-0.2 0.03,-0.4 0.05,-0.63l0 -0.04c0.02,0.01 0.04,0.02 0.07,0.03 0.25,0.1 0.46,0.18 0.65,0.29 4.71,2.72 9.42,5.44 14.13,8.17 -4.88,2.83 -9.75,5.65 -14.64,8.46 -0.04,0.03 -0.11,0.04 -0.23,0.08 0,0 0,0 0,0 -0.01,-0.06 -0.01,-0.12 -0.01,-0.17 -0.02,-0.31 -0.04,-0.58 -0.04,-0.85 -0,-3.89 0,-7.78 0.01,-11.67zm28.5 32.95c-4.58,-2.67 -14.01,-8.1 -20.31,-11.73 -2.2,-1.27 -4,-2.3 -5.02,-2.89 6.13,-3.54 12.15,-7.01 18.14,-10.46l2.1 1.21c1.41,0.81 2.81,1.63 4.22,2.45 0.41,0.24 0.84,0.86 0.84,1.22 0.04,6.93 0.04,14.03 0.04,20.2zm6.36 -19.91c0,-0.51 0.3,-1.18 0.6,-1.36 1.59,-0.93 3.18,-1.85 4.77,-2.77l1.72 -0.99c4.5,2.59 9.77,5.6 13.65,7.81 1.99,1.14 3.61,2.06 4.56,2.61l-1.9 1.1c-2.14,1.24 -4.21,2.44 -6.27,3.63l-4.66 2.69c-4.17,2.4 -8.34,4.8 -12.5,7.22 -0,-6.64 -0,-13.28 0.03,-19.92zm28.48 -16.39c0,3.89 -0,7.78 -0.01,11.67l-0 3.67c-0.01,0.2 -0.03,0.4 -0.05,0.62l-0 0.05c-0.02,-0.01 -0.04,-0.02 -0.07,-0.03 -0.25,-0.1 -0.46,-0.19 -0.65,-0.29 -4.71,-2.72 -9.42,-5.45 -14.14,-8.18 4.88,-2.83 9.76,-5.64 14.64,-8.45 0.04,-0.02 0.11,-0.04 0.22,-0.07 0.01,0.06 0.01,0.12 0.01,0.17 0.02,0.31 0.04,0.58 0.04,0.85zm6.43 7.45l-0 -2.42 0 -0.49c0.01,-3.43 0.01,-6.85 0.02,-10.28 0.01,-1.95 -0.71,-3.19 -2.4,-4.16 -5.36,-3.07 -10.7,-6.16 -16.05,-9.25 1.82,-3.23 2.06,-6.97 0.64,-10.31 -1.43,-3.37 -4.39,-5.82 -8.12,-6.7 -0.11,-0.03 -1.06,-0.2 -1.65,-0.24 -3.9,-0.29 -7.6,1.01 -10.13,3.57 -0.16,0.16 -0.31,0.32 -0.48,0.51 -0.15,-0.18 -0.31,-0.35 -0.47,-0.51 -2.53,-2.55 -6.23,-3.85 -10.13,-3.57 -0.59,0.04 -1.54,0.21 -1.65,0.24 -3.74,0.89 -6.71,3.34 -8.13,6.73 -1.41,3.36 -1.16,7.11 0.69,10.34 -5.32,3.07 -10.64,6.14 -15.97,9.19 -1.06,0.61 -1.73,1.33 -2.09,2.26l-0.27 0.08 0 1.05c-0.03,0.25 -0.04,0.5 -0.04,0.78 0.02,4.58 0.02,9.16 0.02,13.75l0 1.96 -0 0.52c-0,3.42 -0.01,6.83 -0.02,10.25 -0.01,1.95 0.71,3.2 2.4,4.16 11.89,6.81 22.75,13.09 33.19,19.17 0.78,0.46 1.66,0.68 2.53,0.68 0.88,0 1.75,-0.23 2.53,-0.68 10.43,-6.08 21.29,-12.35 33.19,-19.17 1.06,-0.61 1.73,-1.33 2.09,-2.26l0.27 -0.09 0 -0.64 -0 -0.41c0.03,-0.24 0.04,-0.5 0.04,-0.77 -0.02,-4.43 -0.02,-8.86 -0.02,-13.29z"/>
  </g>
 </g>
</svg>
