<?xml version="1.0" encoding="UTF-8"?>
<!DOCTYPE svg PUBLIC "-//W3C//DTD SVG 1.1//EN" "http://www.w3.org/Graphics/SVG/1.1/DTD/svg11.dtd">
<!-- Creator: CorelDRAW (Versão de avaliação) -->
<svg xmlns="http://www.w3.org/2000/svg" xml:space="preserve" width="63.1383mm" height="67.2253mm" version="1.1" style="shape-rendering:geometricPrecision; text-rendering:geometricPrecision; image-rendering:optimizeQuality; fill-rule:evenodd; clip-rule:evenodd"
viewBox="0 0 6313.82 6722.52"
 xmlns:xlink="http://www.w3.org/1999/xlink"
 xmlns:xodm="http://www.corel.com/coreldraw/odm/2003">
 <defs>
  <style type="text/css">
   <![CDATA[
    .fil0 {fill:#373535;fill-rule:nonzero}
   ]]>
  </style>
 </defs>
 <g id="Camada_x0020_1">
  <metadata id="CorelCorpID_0Corel-Layer"/>
  <g id="_105553129897408">
   <path class="fil0" d="M2952.88 2932.3c54.43,54.43 119.52,83.84 187.37,85.7l11.82 0c3.94,0 8.11,0 12.51,0 68.33,-1.85 133.42,-31.27 187.83,-85.7 100.52,-100.28 201.73,-199.65 302.73,-299.47 259.64,-256.17 527.86,-521.13 784.72,-788.64l620.96 358.07c200.82,115.81 365.27,210.32 456.05,262.89l-303.42 175.34c-678.63,391.66 -1344.52,776.13 -2011.35,1158.06 -21.54,12.73 -63.93,14.36 -82.69,3.94 -233.92,-131.55 -1369.07,-787.48 -1978.91,-1139.54l-342.56 -197.8 196.64 -113.95c163.52,-94.49 321.94,-186.22 480.37,-277.94l393.27 -226.52c256.17,267.53 523.91,531.33 782.85,787.03 100.76,99.37 201.5,198.96 302.03,298.78l-0.24 -0.22 0.02 -0.03zm-11.58 -2033.35c40.75,39.62 83.61,67.4 127.39,82.93l30.8 7.87 0 -0.69c89.85,23.16 178.57,-6.94 264.26,-89.87 34.51,-33.12 68.1,-67.4 101.91,-101.91 48.86,-49.34 99.13,-100.98 151.24,-147.99 174.41,-158.19 434.28,-154.95 604.28,7.42 87.09,82.93 138.28,198.96 140.82,317.78 2.08,104.01 -34.74,200.82 -103.53,271.67 -260.35,269.13 -533.87,534.58 -798.38,790.96 -104.92,101.91 -209.84,203.59 -314.31,306.2l-46.54 -46.32 0 -11.58 -6.94 -6.94c-80.37,-78.29 -160.96,-156.58 -241.57,-234.63 -266.59,-258.94 -542.21,-526.47 -804.63,-797.68 -68.79,-70.87 -105.62,-167.68 -103.53,-271.67 2.32,-118.82 53.72,-234.87 140.82,-317.78 170,-162.37 429.88,-165.14 604.28,-6.94 52.11,46.8 102.37,98.44 151.24,147.77 33.57,34.51 67.4,68.79 101.91,101.91l0.47 -0.46 0.01 -0.05zm-2406.03 2393.97l0.24 -303.64c0.69,-16.2 2.32,-32.9 3.94,-51.88l0.46 -3.47c1.85,0.69 3.71,1.85 5.55,2.56 20.38,8.11 38.21,15.29 53.98,24.31 390.28,225.12 780.31,450.48 1170.35,676.31 -403.7,233.93 -807.64,467.4 -1212.04,700.64 -3.47,2.08 -9.02,3.47 -18.76,6.48 0,0 0,0 0,0 -0.46,-4.86 -0.69,-9.5 -1.17,-14.14 -1.85,-25.72 -3.47,-47.93 -3.47,-70.64 0,-322.18 0.24,-644.12 0.69,-966.3l0.24 -0.25 -0.01 0.02zm2359.47 2728.42c-379.39,-220.73 -1159.7,-670.53 -1681.29,-971.16 -182.52,-105.16 -331.2,-190.85 -415.98,-239.49 507.47,-292.75 1005.67,-580.21 1502.01,-866l173.71 100.52c116.5,67.4 232.77,135.02 349.03,202.88 34.28,20.15 69.25,71.35 69.48,101.21 3.01,573.71 3.23,1161.78 3.01,1672.25l0.02 -0.24 0.01 0.03zm526.68 -1648.16c0.24,-42.39 25.01,-98.2 50.03,-112.79 131.55,-76.9 263.34,-153.11 395.37,-229.53l142.2 -82.22c372.21,214.24 809.03,463.47 1129.82,646.44 165.14,94.27 299.25,170.7 378,215.87l-157.73 91.49c-177.42,102.62 -348.35,201.73 -519.05,300.17l-385.87 222.57c-345.1,198.73 -690.21,397.67 -1034.62,597.58 -0.24,-549.61 0,-1099.24 2.08,-1649.33l-0.24 -0.24 0.01 -0.01zm2358.3 -1357.02c0,322.16 -0.24,644.11 -0.69,966.28l-0.24 304.11c-0.69,16.2 -2.32,32.9 -4.17,51.42l-0.24 3.94c-1.85,-1.17 -3.71,-1.63 -5.55,-2.32 -20.61,-8.11 -38.21,-15.53 -54.2,-24.31 -390.28,-225.37 -780.31,-451.41 -1170.35,-677.24 403.94,-233.93 808.1,-466.7 1212.27,-699.93 3.23,-1.85 9.02,-3.47 18.52,-6.03 0.46,4.62 0.69,9.5 1.17,14.14 1.85,25.48 3.47,47.93 3.47,70.18l0 -0.24 0.01 0zm532.02 617.02l0 -200.34 0 -40.3c0.46,-283.49 0.69,-567.21 2.08,-850.93 0.69,-161.2 -58.83,-264.28 -198.96,-344.65 -443.54,-254.08 -886.17,-509.77 -1328.54,-765.48 151.01,-267.05 170.48,-576.72 53.27,-853.51 -118.36,-279.33 -363.17,-481.53 -672.14,-554.95 -8.8,-2.08 -88.01,-16.2 -136.65,-19.69 -322.87,-24.09 -629.07,83.61 -839.13,295.31 -12.97,12.97 -25.48,26.87 -39.62,42.39 -12.73,-14.82 -25.72,-28.95 -39.37,-42.39 -209.83,-211.23 -516.02,-318.69 -838.9,-295.31 -48.86,3.47 -127.85,17.61 -136.65,19.69 -309.9,73.65 -555.4,276.55 -673.07,557.27 -116.98,277.94 -95.9,588.77 57.21,855.83 -440.31,254.54 -881.05,508.17 -1322.29,760.62 -88.01,50.49 -143.13,110.47 -172.78,187.37l-22.7 6.72 0 86.86c-2.32,20.38 -3.71,41.68 -3.47,64.17 1.63,379.15 1.85,758.76 1.85,1138.15l0 162.59 0 42.85c-0.24,282.8 -0.69,565.6 -1.85,848.41 -0.69,161.67 58.83,264.73 198.96,344.65 984.59,563.99 1883.48,1083.26 2748.11,1587.5 64.63,37.76 137.12,56.52 209.61,56.52 72.5,0 145,-18.76 209.61,-56.52 863.68,-503.31 1762.36,-1022.82 2748.11,-1587.5 88.01,-50.49 143.37,-110.02 172.78,-186.92l22.47 -7.18 0 -53.27 0 -33.57c2.32,-20.15 3.71,-41.23 3.47,-63.93 -1.63,-366.88 -1.85,-733.75 -1.85,-1100.63l0.46 0.21 -0.02 -0.04z"/>
  </g>
 </g>
</svg>
