<?xml version="1.0" encoding="UTF-8"?>
<!DOCTYPE svg PUBLIC "-//W3C//DTD SVG 1.1//EN" "http://www.w3.org/Graphics/SVG/1.1/DTD/svg11.dtd">
<!-- Creator: CorelDRAW (Evaluation Version) -->
<svg xmlns="http://www.w3.org/2000/svg" xml:space="preserve" width="63.1316mm" height="67.2239mm" version="1.1" style="shape-rendering:geometricPrecision; text-rendering:geometricPrecision; image-rendering:optimizeQuality; fill-rule:evenodd; clip-rule:evenodd"
viewBox="0 0 272.57 290.24"
 xmlns:xlink="http://www.w3.org/1999/xlink"
 xmlns:xodm="http://www.corel.com/coreldraw/odm/2003">
 <defs>
  <style type="text/css">
   <![CDATA[
    .fil0 {fill:#FEFEFE;fill-rule:nonzero}
   ]]>
  </style>
 </defs>
 <g id="Layer_x0020_1">
  <metadata id="CorelCorpID_0Corel-Layer"/>
  <path class="fil0" d="M127.46 126.61c2.35,2.35 5.16,3.62 8.09,3.7l0.51 0c0.17,0 0.35,0 0.54,0 2.95,-0.08 5.76,-1.35 8.11,-3.7 4.34,-4.33 8.71,-8.62 13.07,-12.93 11.21,-11.06 22.79,-22.5 33.88,-34.05l26.81 15.46c8.67,5 15.77,9.08 19.69,11.35l-13.1 7.57c-29.3,16.91 -58.05,33.51 -86.84,50 -0.93,0.55 -2.76,0.62 -3.57,0.17 -10.1,-5.68 -59.11,-34 -85.44,-49.2l-14.79 -8.54 8.49 -4.92c7.06,-4.08 13.9,-8.04 20.74,-12l16.98 -9.78c11.06,11.55 22.62,22.94 33.8,33.98 4.35,4.29 8.7,8.59 13.04,12.9zm-0.5 -87.79c1.76,1.71 3.61,2.91 5.5,3.58l1.33 0.34 0 -0.03c3.88,1 7.71,-0.3 11.41,-3.88 1.49,-1.43 2.94,-2.91 4.4,-4.4 2.11,-2.13 4.28,-4.36 6.53,-6.39 7.53,-6.83 18.75,-6.69 26.09,0.32 3.76,3.58 5.97,8.59 6.08,13.72 0.09,4.49 -1.5,8.67 -4.47,11.73 -11.24,11.62 -23.05,23.08 -34.47,34.15 -4.53,4.4 -9.06,8.79 -13.57,13.22l-2.01 -2 0 -0.5 -0.3 -0.3c-3.47,-3.38 -6.95,-6.76 -10.43,-10.13 -11.51,-11.18 -23.41,-22.73 -34.74,-34.44 -2.97,-3.06 -4.56,-7.24 -4.47,-11.73 0.1,-5.13 2.32,-10.14 6.08,-13.72 7.34,-7.01 18.56,-7.13 26.09,-0.3 2.25,2.02 4.42,4.25 6.53,6.38 1.45,1.49 2.91,2.97 4.4,4.4zm-103.88 103.36l0.01 -13.11c0.03,-0.7 0.1,-1.42 0.17,-2.24l0.02 -0.15c0.08,0.03 0.16,0.08 0.24,0.11 0.88,0.35 1.65,0.66 2.33,1.05 16.85,9.72 33.69,19.45 50.53,29.2 -17.43,10.1 -34.87,20.18 -52.33,30.25 -0.15,0.09 -0.39,0.15 -0.81,0.28 0,0 0,0 0,0 -0.02,-0.21 -0.03,-0.41 -0.05,-0.61 -0.08,-1.11 -0.15,-2.07 -0.15,-3.05 -0,-13.91 0.01,-27.81 0.03,-41.72zm101.87 117.8c-16.38,-9.53 -50.07,-28.95 -72.59,-41.93 -7.88,-4.54 -14.3,-8.24 -17.96,-10.34 21.91,-12.64 43.42,-25.05 64.85,-37.39l7.5 4.34c5.03,2.91 10.05,5.83 15.07,8.76 1.48,0.87 2.99,3.08 3,4.37 0.13,24.77 0.14,50.16 0.13,72.2zm22.74 -71.16c0.01,-1.83 1.08,-4.24 2.16,-4.87 5.68,-3.32 11.37,-6.61 17.07,-9.91l6.14 -3.55c16.07,9.25 34.93,20.01 48.78,27.91 7.13,4.07 12.92,7.37 16.32,9.32l-6.81 3.95c-7.66,4.43 -15.04,8.71 -22.41,12.96l-16.66 9.61c-14.9,8.58 -29.8,17.17 -44.67,25.8 -0.01,-23.73 -0,-47.46 0.09,-71.21zm101.82 -58.59c0,13.91 -0.01,27.81 -0.03,41.72l-0.01 13.13c-0.03,0.7 -0.1,1.42 -0.18,2.22l-0.01 0.17c-0.08,-0.05 -0.16,-0.07 -0.24,-0.1 -0.89,-0.35 -1.65,-0.67 -2.34,-1.05 -16.85,-9.73 -33.69,-19.49 -50.53,-29.24 17.44,-10.1 34.89,-20.15 52.34,-30.22 0.14,-0.08 0.39,-0.15 0.8,-0.26 0.02,0.2 0.03,0.41 0.05,0.61 0.08,1.1 0.15,2.07 0.15,3.03zm22.97 26.64l-0 -8.65 0 -1.74c0.02,-12.24 0.03,-24.49 0.09,-36.74 0.03,-6.96 -2.54,-11.41 -8.59,-14.88 -19.15,-10.97 -38.26,-22.01 -57.36,-33.05 6.52,-11.53 7.36,-24.9 2.3,-36.85 -5.11,-12.06 -15.68,-20.79 -29.02,-23.96 -0.38,-0.09 -3.8,-0.7 -5.9,-0.85 -13.94,-1.04 -27.16,3.61 -36.23,12.75 -0.56,0.56 -1.1,1.16 -1.71,1.83 -0.55,-0.64 -1.11,-1.25 -1.7,-1.83 -9.06,-9.12 -22.28,-13.76 -36.22,-12.75 -2.11,0.15 -5.52,0.76 -5.9,0.85 -13.38,3.18 -23.98,11.94 -29.06,24.06 -5.05,12 -4.14,25.42 2.47,36.95 -19.01,10.99 -38.04,21.94 -57.09,32.84 -3.8,2.18 -6.18,4.77 -7.46,8.09l-0.98 0.29 0 3.75c-0.1,0.88 -0.16,1.8 -0.15,2.77 0.07,16.37 0.08,32.76 0.08,49.14l0 7.02 -0 1.85c-0.01,12.21 -0.03,24.42 -0.08,36.63 -0.03,6.98 2.54,11.43 8.59,14.88 42.51,24.35 81.32,46.77 118.65,68.54 2.79,1.63 5.92,2.44 9.05,2.44 3.13,0 6.26,-0.81 9.05,-2.44 37.29,-21.73 76.09,-44.16 118.65,-68.54 3.8,-2.18 6.19,-4.75 7.46,-8.07l0.97 -0.31 0 -2.3 -0 -1.45c0.1,-0.87 0.16,-1.78 0.15,-2.76 -0.07,-15.84 -0.08,-31.68 -0.08,-47.52z"/>
 </g>
</svg>
